<svg xmlns="http://www.w3.org/2000/svg" width="20" height="20" viewBox="0 0 20 20">
  <path fill="#9EA7AD" fill-rule="evenodd"
        d="M8.019 12.184A4.16 4.16 0 0 1 3.853 8.02 4.16 4.16 0 0 1 8.02 3.853a4.16 4.16 0 0 1 4.166 4.166 4.16 4.16 0 0 1-4.166 4.165zm5.554 0h-.731l-.26-.25a6.008 6.008 0 0 0 1.367-4.943c-.43-2.576-2.58-4.627-5.173-4.943a6.02 6.02 0 0 0-6.728 6.73c.317 2.592 2.366 4.741 4.943 5.172a6.005 6.005 0 0 0 4.944-1.367l.25.259v.731l4.3 4.292c.181.18.474.18.655 0l.724-.724a.463.463 0 0 0 0-.656l-4.29-4.3z"/>
</svg>
