<?xml version="1.0" encoding="UTF-8"?>
<svg width="176px" height="27px" viewBox="0 0 176 27" version="1.1" xmlns="http://www.w3.org/2000/svg" xmlns:xlink="http://www.w3.org/1999/xlink">
    <!-- Generator: Sketch 55.2 (78181) - https://sketchapp.com -->
    <title>logo_ridibooks_1</title>
    <desc>Created with Sketch.</desc>
    <g id="Page-1" stroke="none" stroke-width="1" fill="none" fill-rule="evenodd">
        <g id="logo_ridibooks_1" transform="translate(-92.000000, -143.000000)" fill="#1F8CE6">
            <g id="logo">
                <g transform="translate(92.000000, 143.000000)">
                    <path d="M41.1700492,19.989493 L41.1700492,6.44562456 L41.1700492,6.15103684 L41.4673106,6.15103684 L42.4841572,6.15103684 C44.0936259,6.15103684 45.2587231,6.67118596 45.9478981,7.6960193 C46.6070428,8.67747544 46.927492,10.4834754 46.927492,13.2181246 C46.927492,15.9493789 46.6207274,17.7531158 45.9900924,18.732686 C45.3267663,19.7624228 44.1726929,20.2844579 42.559803,20.2844579 L41.4673106,20.2844579 L41.1700492,20.2844579 L41.1700492,19.989493 Z M35.317194,26.0245807 L42.7479672,26.0245807 C46.5701702,26.0245807 49.3770471,25.0600982 51.089911,23.1586684 C52.8176,21.2432825 53.6930384,17.8983351 53.6930384,13.2181246 C53.6930384,8.53753684 52.8111378,5.19334386 51.0728052,3.27833509 C49.3462566,1.37577368 46.519613,0.410914035 42.6719413,0.410914035 L35.317194,0.410914035 C34.7074661,0.410914035 34.481289,0.636852632 34.481289,1.24187018 L34.481289,25.1940018 C34.481289,25.7990193 34.7074661,26.0245807 35.317194,26.0245807 L35.317194,26.0245807 Z" id="Fill-4"></path>
                    <path d="M137.939753,26.0243921 L142.956323,26.0243921 C143.565671,26.0243921 143.792228,25.7980763 143.792228,25.1941904 L143.792228,14.9239798 L143.792228,13.6207781 L144.357481,14.7976202 L149.316651,25.1149798 C149.618474,25.7339535 150.042699,26.0243921 150.650146,26.0243921 L155.967399,26.0243921 C156.315217,26.0243921 156.415571,25.9070851 156.468029,25.7939272 C156.524289,25.6724711 156.575226,25.469164 156.368055,25.1044184 L149.875822,12.0708921 L149.805498,11.9283132 L149.885705,11.7917693 L155.996289,1.3212693 C156.202319,0.956146491 156.157844,0.751707895 156.105006,0.628365789 C156.074595,0.558585088 156.012254,0.411102632 155.628323,0.411102632 L150.348703,0.411102632 C149.755701,0.411102632 149.317032,0.707953509 148.965792,1.34427807 L144.348738,9.51012895 L143.792228,10.4938482 L143.792228,9.36528684 L143.792228,1.24130439 C143.792228,0.636286842 143.565671,0.411102632 142.956323,0.411102632 L137.939753,0.411102632 C137.329645,0.411102632 137.102708,0.636286842 137.102708,1.24130439 L137.102708,25.1941904 C137.102708,25.7980763 137.329645,26.0243921 137.939753,26.0243921" id="Fill-6"></path>
                    <path d="M159.537348,25.2305895 C161.488933,26.0053439 163.870065,26.3980018 166.616501,26.3980018 C169.22267,26.3980018 171.399292,25.7790281 173.085927,24.5557912 C174.728847,23.3646158 175.56133,21.4767649 175.56133,18.9435368 C175.56133,17.8470368 175.423724,16.8882123 175.151931,16.0908263 C174.887361,15.314186 174.435767,14.6110982 173.810073,14.0015544 C173.152829,13.3610807 172.519153,12.8360281 171.929952,12.4426158 C171.332769,12.0439228 170.439464,11.5298088 169.275127,10.9153614 C166.875369,9.70985263 165.755127,8.59713333 165.755127,7.4165193 C165.755127,6.51050175 166.217365,6.09068596 166.605097,5.89869474 C167.075698,5.66558947 167.75727,5.55243158 168.691248,5.55243158 C170.164251,5.55243158 171.527015,5.74744035 172.741909,6.13330877 C172.907646,6.17630877 173.0654,6.20044912 173.198825,6.20044912 C173.502168,6.20044912 173.707058,6.10275614 173.796769,5.61655439 L174.438048,2.09960702 C174.496968,1.75862456 174.470359,1.32409825 173.724924,1.01366842 C172.12876,0.365650877 170.10419,0.0367385965 167.709754,0.0367385965 C164.686583,0.0367385965 162.432795,0.609317544 161.01073,1.73674737 C159.619836,2.84079123 158.915076,4.67658947 158.915076,7.19246667 C158.915076,8.38251053 159.077771,9.45411579 159.400121,10.3782386 C159.716389,11.2838789 160.194592,12.0582561 160.821806,12.6810018 C161.476009,13.3290193 162.12451,13.8638789 162.749063,14.2697386 C163.384259,14.6812561 164.180631,15.1135193 165.11613,15.5525719 C166.481555,16.2684842 167.408691,16.8267298 167.882713,17.2193877 C168.439222,17.6806947 168.721279,18.2234754 168.721279,18.8307561 C168.721279,20.1924228 167.428838,20.8830632 164.880829,20.8830632 C163.324959,20.8830632 161.850436,20.6216684 160.497935,20.1056684 C160.293806,20.0290982 160.109063,19.9872298 159.964613,19.9872298 C159.811421,19.9872298 159.554454,19.9872298 159.435473,20.5971509 L158.793814,24.1548351 C158.695741,24.5931333 158.768346,24.7481596 158.804458,24.7941772 C158.867559,24.8756509 159.047741,25.0423702 159.537348,25.2305895" id="Fill-8"></path>
                    <path d="M120.69506,7.38943684 C121.190749,6.26200702 122.100399,5.66528772 123.328978,5.66528772 C124.552995,5.66528772 125.469868,6.26012105 125.979241,7.38528772 C126.44376,8.41200702 126.6783,10.3741649 126.6783,13.2185772 C126.6783,16.0622351 126.44376,18.0240158 125.979241,19.0496035 C125.469868,20.1759018 124.552995,20.7711123 123.328978,20.7711123 C122.100399,20.7711123 121.189989,20.1747702 120.69506,19.0462088 C120.243846,18.0198667 120.016529,16.0592175 120.016529,13.2185772 C120.016529,10.3771825 120.243846,8.41615614 120.69506,7.38943684 M115.891362,23.6837965 C116.769082,24.6584632 117.812157,25.3668316 118.991699,25.7885333 C120.193289,26.2177789 121.652987,26.4357965 123.328978,26.4357965 C125.003829,26.4357965 126.462386,26.2177789 127.665116,25.7885333 C128.846559,25.3657 129.889254,24.658086 130.764313,23.6837965 C131.644313,22.7053579 132.314861,21.3448228 132.759993,19.6376474 C133.213868,17.8942614 133.443086,15.7352088 133.443086,13.2185772 C133.443086,10.700814 133.213868,8.54062982 132.759993,6.79799825 C132.314861,5.09082281 131.644313,3.72953333 130.764693,2.7529807 C129.890015,1.77831404 128.846939,1.06994561 127.665116,0.647866667 C126.462386,0.217866667 125.003829,0.000226315789 123.328978,0.000226315789 C121.652987,0.000226315789 120.193289,0.217866667 118.991699,0.647866667 C117.811017,1.06919123 116.767941,1.77755965 115.890982,2.7529807 C115.014023,3.72953333 114.343095,5.09082281 113.896822,6.79799825 C113.443708,8.5364807 113.212969,10.6962877 113.212969,13.2185772 C113.212969,15.7393579 113.443708,17.8995421 113.896822,19.6376474 C114.343095,21.3448228 115.014023,22.7061123 115.891362,23.6837965" id="Fill-10"></path>
                    <path d="M24.3040035,26.0243921 L29.3205737,26.0243921 C29.9299214,26.0243921 30.1560985,25.7988307 30.1560985,25.1938132 L30.1560985,1.24205877 C30.1560985,0.637041228 29.9299214,0.411102632 29.3205737,0.411102632 L24.3040035,0.411102632 C23.6935153,0.411102632 23.466578,0.637041228 23.466578,1.24205877 L23.466578,25.1938132 C23.466578,25.7988307 23.6935153,26.0243921 24.3040035,26.0243921" id="Fill-12"></path>
                    <path d="M58.4867387,26.0243921 L63.5040691,26.0243921 C64.1126566,26.0243921 64.3392138,25.7988307 64.3392138,25.193436 L64.3392138,1.24205877 C64.3392138,0.637041228 64.1126566,0.411102632 63.5040691,0.411102632 L58.4867387,0.411102632 C57.8762505,0.411102632 57.6493132,0.637041228 57.6493132,1.24205877 L57.6493132,25.193436 C57.6493132,25.7988307 57.8762505,26.0243921 58.4867387,26.0243921" id="Fill-14"></path>
                    <path d="M97.9474212,7.38943684 C98.4431102,6.26200702 99.3535205,5.66528772 100.581339,5.66528772 C101.805737,5.66528772 102.722609,6.26012105 103.231603,7.38528772 C103.696121,8.41200702 103.931421,10.3741649 103.931421,13.2185772 C103.931421,16.0622351 103.696121,18.0240158 103.231603,19.0496035 C102.722609,20.1759018 101.805737,20.7711123 100.581339,20.7711123 C99.3535205,20.7711123 98.4431102,20.1747702 97.9474212,19.0462088 C97.4965875,18.0198667 97.2685097,16.0592175 97.2685097,13.2185772 C97.2685097,10.3771825 97.4965875,8.41615614 97.9474212,7.38943684 M93.1441037,23.6837965 C94.0214428,24.6584632 95.0645184,25.3668316 96.2440605,25.7885333 C97.4464104,26.2177789 98.9053477,26.4357965 100.581339,26.4357965 C102.25619,26.4357965 103.715127,26.2177789 104.917477,25.7885333 C106.09854,25.3657 107.141616,24.658086 108.017434,23.6837965 C108.896674,22.7053579 109.567983,21.3448228 110.012734,19.6376474 C110.466229,17.8942614 110.696207,15.7352088 110.696207,13.2185772 C110.696207,10.700814 110.466229,8.54062982 110.012734,6.79799825 C109.567983,5.09082281 108.896674,3.72953333 108.018194,2.7529807 C107.142376,1.77831404 106.100821,1.06994561 104.917477,0.647866667 C103.715127,0.217866667 102.25619,0.000226315789 100.581339,0.000226315789 C98.9053477,0.000226315789 97.4464104,0.217866667 96.2440605,0.647866667 C95.0629978,1.06919123 94.0203024,1.77755965 93.1433434,2.7529807 C92.2663844,3.72953333 91.5954557,5.09082281 91.1499438,6.79799825 C90.6960691,8.5364807 90.4657106,10.6962877 90.4657106,13.2185772 C90.4657106,15.7393579 90.6960691,17.8995421 91.1499438,19.6376474 C91.5954557,21.3448228 92.2663844,22.7061123 93.1441037,23.6837965" id="Fill-16"></path>
                    <path d="M75.1288881,20.6258175 L75.1288881,15.5408789 L75.1288881,15.245914 L75.4261495,15.245914 L78.1018816,15.245914 C79.1221495,15.245914 79.8801279,15.4763789 80.3537693,15.9312737 C80.8323525,16.3903175 81.0752553,17.1141509 81.0752553,18.0824053 C81.0752553,19.0702737 80.8547801,19.7967474 80.4221927,20.2425895 C79.977441,20.698993 79.2316268,20.9207825 78.1398946,20.9207825 L75.4261495,20.9207825 L75.1288881,20.9207825 L75.1288881,20.6258175 Z M75.1288881,10.2963877 L75.1288881,5.81005439 L75.1288881,5.51546667 L75.4261495,5.51546667 L77.8000587,5.51546667 C78.7549443,5.51546667 79.4285339,5.7070807 79.85694,6.10049298 C80.2887672,6.49767719 80.5088622,7.1423 80.5088622,8.01587895 C80.5088622,8.88568596 80.2861063,9.54087018 79.8451559,9.96257193 C79.4068665,10.3801246 78.7062877,10.5909754 77.7620458,10.5909754 L75.4261495,10.5909754 L75.1288881,10.5909754 L75.1288881,10.2963877 Z M69.4273244,26.0238263 L78.6302618,26.0238263 C84.7256397,26.0238263 87.6895102,23.5732035 87.6895102,18.5316421 C87.6895102,16.9583702 87.3530955,15.6623351 86.6897693,14.6808789 C86.0306246,13.7065895 85.1612683,13.0272649 84.1033676,12.6628965 L83.7498471,12.5403088 L83.0424259,12.2955105 L83.7266592,11.9922474 L84.0676354,11.8413702 C86.019981,10.9749579 87.0102186,9.27230877 87.0102186,6.78094912 C87.0102186,4.38124737 86.3100199,2.71179123 84.9301495,1.81822105 C83.4905987,0.884668421 81.1672467,0.411668421 78.0262359,0.411668421 L69.4273244,0.411668421 C68.8179767,0.411668421 68.590279,0.636475439 68.590279,1.24224737 L68.590279,25.1940018 C68.590279,25.7990193 68.8179767,26.0238263 69.4273244,26.0238263 L69.4273244,26.0238263 Z" id="Fill-18"></path>
                    <path d="M7.216,12.6918649 L7.216,6.2961807 L7.216,6.00121579 L7.51326134,6.00121579 L9.50932181,6.00121579 C10.7344795,6.00121579 11.5700043,6.26298772 12.0637927,6.80086491 C12.5480778,7.32591754 12.7841382,8.21345263 12.7841382,9.51250526 C12.7841382,10.7319702 12.5511188,11.5919702 12.0713952,12.1415404 C11.583689,12.7024263 10.7219352,12.9864526 9.50932181,12.9864526 L7.51326134,12.9864526 L7.216,12.9864526 L7.216,12.6918649 Z M1.40039741,26.0237509 L6.37857451,26.0237509 C6.98906263,26.0237509 7.216,25.7989439 7.216,25.1939263 L7.216,18.4968649 L7.216,18.2022772 L7.51326134,18.2022772 L8.88666955,18.2022772 L9.0736933,18.2022772 L9.15466091,18.3689965 L12.4758531,25.2244789 C12.7495464,25.7683912 13.1859352,26.0237509 13.8473607,26.0237509 L18.9015637,26.0237509 C19.3269287,26.0237509 19.392311,25.8762684 19.4173996,25.8208211 C19.4968467,25.6405228 19.4573132,25.3979877 19.2991793,25.1011368 L15.2660043,17.5180491 L15.1223153,17.2468474 L15.4001901,17.1140754 L15.5400778,17.0480667 C18.2002246,15.7859789 19.5493045,13.2512421 19.5493045,9.51250526 C19.5493045,6.14454912 18.7696587,3.76370702 17.2320346,2.43561053 C15.6761641,1.09280351 13.1034471,0.411592982 9.5849676,0.411592982 L1.40039741,0.411592982 C0.791429806,0.411592982 0.564492441,0.6364 0.564492441,1.24217193 L0.564492441,25.1939263 C0.564492441,25.7989439 0.791429806,26.0237509 1.40039741,26.0237509 L1.40039741,26.0237509 Z" id="Fill-20"></path>
                </g>
            </g>
        </g>
    </g>
</svg>
