<?xml version="1.0" encoding="UTF-8"?>
<svg width="36px" height="36px" viewBox="0 0 36 36" version="1.1" xmlns="http://www.w3.org/2000/svg">
    <!-- Generator: Sketch 52.6 (67491) - http://www.bohemiancoding.com/sketch -->
    <title>reader-empty-icon-memo</title>
    <desc>Created with Sketch.</desc>
    <g id="Symbols" stroke="none" stroke-width="1" fill="none" fill-rule="evenodd">
        <g id="reader/rn/icon/empty/2_memo" fill="#D1D5D9">
            <g id="Group">
                <path d="M20.2334795,23.7866301 L2.96087671,23.7866301 L2.95841096,15.3586849 L20.2186849,15.3586849 L20.2334795,23.7866301 Z M20.2334795,32.1253151 L12.3376438,32.1253151 L12.328274,26.7011507 L20.2186849,26.7011507 L20.2334795,32.1253151 Z M31.1222466,12.3997808 L23.177589,4.45512329 L23.177589,12.3997808 L31.1222466,12.3997808 Z M30.3239161,15.3586849 L23.177589,15.3586849 L23.1838202,22.4990868 L30.3239161,15.3586849 Z M23.1874683,26.679452 L23.1943562,34.5723288 C23.1943562,34.8425753 22.9739178,35.0615342 22.7007123,35.0615342 L9.86991781,35.0615342 C9.59769863,35.0615342 9.37627397,34.8425753 9.37627397,34.5723288 L9.36936986,26.7011507 L0.492657534,26.7011507 C0.219945205,26.7011507 0,26.5038904 0,26.2336438 L0,13.0117808 C0,12.7420274 0.219945205,12.3997808 0.492657534,12.3997808 L8.87326027,12.3997808 L20.6953151,0.577726027 C21.4656164,-0.192575342 22.7147671,-0.192575342 23.4845753,0.577726027 L34.9922466,12.0853973 C35.7625479,12.8556986 35.7625479,14.1048493 34.9922466,14.8751507 L23.1874683,26.679452 Z M13.0576438,12.3997808 L20.2186849,12.3997808 L20.2186849,5.23873973 L13.0576438,12.3997808 Z" id="Combined-Shape"></path>
            </g>
        </g>
    </g>
</svg>
