<?xml version="1.0" encoding="UTF-8"?>
<svg width="36px" height="36px" viewBox="0 0 36 36" version="1.1" xmlns="http://www.w3.org/2000/svg" xmlns:xlink="http://www.w3.org/1999/xlink">
    <!-- Generator: Sketch 57.1 (83088) - https://sketch.com -->
    <title>reader-empty-icon-comic</title>
    <desc>Created with Sketch.</desc>
    <g id="Symbols" stroke="none" stroke-width="1" fill="none" fill-rule="evenodd">
        <g id="reader/rn/icon/empty/all" fill="#D1D5D9">
            <g id="Group">
                <path d="M30.93735,25.5001 L30.93735,26.5886 C30.93735,26.8521 30.83335,27.1051 30.64785,27.2926 L24.29385,33.7036 C24.10585,33.8931 23.84985,34.0001 23.58335,34.0001 L6.99985,34.0001 C6.44785,34.0001 5.99985,33.5521 5.99985,33.0001 L5.99985,3.0001 C5.99985,2.4481 6.44785,2.0001 6.99985,2.0001 L29.93735,2.0001 C30.48935,2.0001 30.93735,2.4481 30.93735,3.0001 L30.93735,22.5001 L30.99985,22.5001 L30.99985,25.5001 L30.93735,25.5001 Z M27.93735,22.5001 L27.93735,5.0001 L8.99985,5.0001 L8.99985,31.0001 L19.46885,31.0001 L19.46885,24.5001 L19.49985,24.5001 L19.49985,23.5001 C19.49985,22.9481 19.94785,22.5001 20.49985,22.5001 L27.93735,22.5001 L27.93735,22.5001 Z M27.93735,25.5001 L22.46885,25.5001 L22.46885,31.0001 L22.74935,31.0001 L27.93735,25.7651 L27.93735,25.5001 L27.93735,25.5001 Z" id="Shape"></path>
                <rect id="Rectangle" x="12" y="8" width="13" height="3"></rect>
                <rect id="Rectangle-Copy" x="12" y="14" width="8" height="3"></rect>
            </g>
        </g>
    </g>
</svg>
