<svg xmlns="http://www.w3.org/2000/svg" width="36" height="36" viewBox="0 0 36 36">
    <path fill="#D1D5D9" fill-rule="evenodd" d="M1.7 5.5h1.6a.7.7 0 0 1 .7.7v1.6a.7.7 0 0 1-.7.7H1.7a.7.7 0 0 1-.7-.7V6.2a.7.7 0 0 1 .7-.7zm0 11h1.6a.7.7 0 0 1 .7.7v1.6a.7.7 0 0 1-.7.7H1.7a.7.7 0 0 1-.7-.7v-1.6a.7.7 0 0 1 .7-.7zm0 11h1.6a.7.7 0 0 1 .7.7v1.6a.7.7 0 0 1-.7.7H1.7a.7.7 0 0 1-.7-.7v-1.6a.7.7 0 0 1 .7-.7zm6-22h26.6a.7.7 0 0 1 .7.7v1.6a.7.7 0 0 1-.7.7H7.7a.7.7 0 0 1-.7-.7V6.2a.7.7 0 0 1 .7-.7zm0 11h26.6a.7.7 0 0 1 .7.7v1.6a.7.7 0 0 1-.7.7H7.7a.7.7 0 0 1-.7-.7v-1.6a.7.7 0 0 1 .7-.7zm0 11h26.6a.7.7 0 0 1 .7.7v1.6a.7.7 0 0 1-.7.7H7.7a.7.7 0 0 1-.7-.7v-1.6a.7.7 0 0 1 .7-.7z"/>
</svg>
