<svg xmlns="http://www.w3.org/2000/svg" xmlns:xlink="http://www.w3.org/1999/xlink" width="36px" height="36px" viewBox="0 0 36 36" version="1.1">
    <!-- Generator: Sketch 52.6 (67491) - http://www.bohemiancoding.com/sketch -->
    <title>reader-empty-icon-highlight</title>
    <desc>Created with Sketch.</desc>
    <g id="Symbols" stroke="none" stroke-width="1" fill="none" fill-rule="evenodd">
        <g id="reader/rn/icon/empty/1_highlight" fill="#D1D5D9">
            <g id="Group" transform="translate(-0.500000, 0.000000)">
                <path d="M31.83865,35 L5.15665,35 C4.79365,35 4.49965,34.6877715 4.49965,34.301871 L4.49965,32.6976278 C4.49965,32.3127297 4.79365,32 5.15665,32 L31.83865,32 C32.20165,32 32.49515,32.3127297 32.49515,32.6976278 L32.49515,34.301871 C32.49515,34.6877715 32.20165,35 31.83865,35 Z M17.8656089,7.80761184 L7.65685425,18.0163665 L7.65685425,25.0874343 L14.7279221,25.0874343 L24.9366767,14.8786797 L17.8656089,7.80761184 Z M17.8656089,3.56497116 L29.1793174,14.8786797 L15.9705627,28.0874343 L4.65685425,28.0874343 L4.65685425,16.7737258 L17.8656089,3.56497116 Z M22.8153564,1.44365081 L31.3006378,9.92893219 C32.0816863,10.7099808 32.0816863,11.9763107 31.3006378,12.7573593 L30.593531,13.4644661 L19.2798225,2.1507576 L19.9869293,1.44365081 C20.7679778,0.66260223 22.0343078,0.66260223 22.8153564,1.44365081 Z" id="Shape"/>
            </g>
        </g>
    </g>
</svg>
