<svg height="24" viewBox="0 0 25 24" width="25" xmlns="http://www.w3.org/2000/svg"><g fill="#b8bfc4" fill-rule="evenodd" transform="translate(.5 .345543)"><path d="m2.155951 11.7680391 7.34167 7.1653044 9.76521-9.53030437-7.34167-7.16626087zm7.34216 9.271087c-.392 0-.76048-.1496957-1.03782-.4203913l-8.03159-7.8386957c-.57134-.5581304-.57134-1.4653913 0-2.0235217l10.45562-10.20513044c.57183-.5586087 1.50185-.55765218 2.07368 0l8.03208 7.83965217c.27685.26973913.42973.6293913.42973 1.012 0 .38213044-.15288.74178257-.43071 1.01247827l-10.45464 10.2041739c-.27636.2697391-.64484.4194348-1.03635.4194348z"/><path d="m18.478586 11.4747217h-16.66l1.96-1.91304344h16.66z"/><path d="m21.169764 19.5999913c-.66395-.0066956-1.21373-.5308696-1.22696-1.2004348l.00196-.0521304c.00049-.0363478.00392-.0726957.01029-.1181304.098-.7255218.71638-1.7413479 1.21471-2.4472609.49833.705913 1.11671 1.7217391 1.21471 2.4472609.00637.0454347.0098.0817826.01078.1181304l.00147.0521304c-.01323.6695652-.56301 1.1937392-1.22696 1.2004348m3.18157-1.1243913.00588-.1750435h.0049c-.00441-.1095217-.01176-.2180869-.02793-.3233043-.26411-1.9637392-2.33681-4.5066522-2.56956-4.7897826l-.60368-.7140435v-.0382609.0191305-.0191305.0382609l-.58849.7140435c-.23275.2831304-2.29075 2.8260434-2.55486 4.7897826-.01617.1052174-.02499.2137826-.0294.3233043h.00098l-.00245.1750435c.03479 1.6696087 1.45579 3.0259565 3.17422 3.0431739v.0033478c.00539 0-.0049-.001913 0-.001913.00539 0 0 .001913 0 .001913v-.0033478c1.58809-.0172174 3.1556-1.3735652 3.19039-3.0431739"/></g></svg>