<?xml version="1.0" encoding="UTF-8"?>
<svg width="10px" height="10px" viewBox="0 0 10 10" version="1.1" xmlns="http://www.w3.org/2000/svg">
    <!-- Generator: Sketch 52.5 (67469) - http://www.bohemiancoding.com/sketch -->
    <title>main-icon-book-info-ridiselect</title>
    <desc>Created with Sketch.</desc>
    <g id="Symbols" stroke="none" stroke-width="1" fill="none" fill-rule="evenodd">
        <g id="main/library/grid/component/ridiselect" transform="translate(-5.000000, -4.000000)">
            <g id="book_1" transform="translate(5.000000, 4.000000)" fill="#FFFFFF">
                <path d="M7.48425344,0.7 C6.39963221,0.7 5.42043134,1.17001642 5.00041667,1.75712026 C4.57956864,1.17001642 3.60036777,0.7 2.51574655,0.7 L0.626097206,0.7 C0.279418429,0.7 0.000658691848,0.961675807 0.000658691848,1.28710384 L0.000658691848,7.70774479 C-0.0118417448,7.89983483 0.155247425,8.05109011 0.359837905,8.05109011 C0.359837905,8.05109011 1.38237362,8.0335895 1.87155738,8.0335895 C2.87534244,8.0335895 4.46164785,8.1556771 4.69665606,9.03362444 L5.30334392,9.03362444 C5.53835213,8.1556771 7.12465754,8.0335895 8.12885929,8.0335895 C8.61804304,8.0335895 9.64057876,8.05109011 9.64057876,8.05109011 C9.84475256,8.05109011 10.0118417,7.89983483 9.99934129,7.70774479 L9.99934129,1.28710384 C9.99934129,0.961675807 9.72058155,0.7 9.37390278,0.7 L7.48425344,0.7 Z M7.16757571,3.77427405 L4.84374453,6.15435719 L4.59706925,6.40686601 L4.35039397,6.15435719 L2.76158847,4.55930148 L2.98701301,4.32971012 L3.26202261,4.05011702 L3.50828122,3.79927493 L4.59748593,4.88139606 L6.40129894,3.03549825 L6.6483909,2.78340611 L6.89506619,3.03591493 L7.16757571,3.31550803 L7.39133352,3.54509938 L7.16757571,3.77427405 Z" id="Fill-1"></path>
            </g>
        </g>
    </g>
</svg>
