<?xml version="1.0" encoding="UTF-8"?>
<svg width="10px" height="10px" viewBox="0 0 10 10" version="1.1" xmlns="http://www.w3.org/2000/svg">
    <!-- Generator: Sketch 51.1 (57501) - http://www.bohemiancoding.com/sketch -->
    <title>main-icon-book-info-period-w</title>
    <desc>Created with Sketch.</desc>
    <defs></defs>
    <g id="Symbols" stroke="none" stroke-width="1" fill="none" fill-rule="evenodd">
        <g id="main/library/list/icon/info/borrow_white" fill="#FFFFFF" fill-rule="nonzero">
            <g id="timer">
                <path d="M3.89583333,4.58333333 C3.85416667,4.70833333 3.8125,4.85416667 3.8125,5 C3.8125,5.64583333 4.33333333,6.16666667 4.97916667,6.16666667 C5.625,6.16666667 6.14583333,5.64583333 6.14583333,5 C6.14583333,4.35416667 5.625,3.83333333 4.97916667,3.83333333 L2.64583333,1.04166667 C2.64583333,1.04166667 2.125,0.541666667 1.77083333,0.75 C1.47916667,0.979166667 1.64583333,1.375 1.83333333,1.64583333 L3.89583333,4.58333333 Z M5,0 C4.79166667,0 4.625,0.0208333333 4.375,0.0416666667 L4.29166667,0.0416666667 C3.91666667,0.0416666667 3.625,0.333333333 3.625,0.708333333 C3.625,1.08333333 3.91666667,1.375 4.29166667,1.375 L4.3125,1.375 C4.52083333,1.33333333 4.75,1.33333333 4.97916667,1.33333333 C7,1.33333333 8.625,2.95833333 8.625,4.97916667 C8.625,7 7.02083333,8.64583333 5,8.64583333 C2.97916667,8.64583333 1.35416667,7.02083333 1.35416667,5 C1.35416667,4.4375 1.47916667,3.89583333 1.70833333,3.41666667 C1.75,3.33333333 1.75,3.25 1.75,3.14583333 C1.75,2.77083333 1.45833333,2.47916667 1.08333333,2.47916667 C0.833333333,2.47916667 0.625,2.60416667 0.520833333,2.79166667 L0.520833333,2.8125 C0.479166667,2.85416667 0.458333333,2.875 0.458333333,2.91666667 C0.166666667,3.5625 0,4.25 0,5 C0,7.77083333 2.22916667,10 5,10 C7.77083333,10 10,7.77083333 10,5 C10,2.22916667 7.77083333,0 5,0 Z" id="Shape"></path>
            </g>
        </g>
    </g>
</svg>
