<?xml version="1.0" encoding="UTF-8"?>
<svg width="50px" height="50px" viewBox="0 0 50 50" version="1.1" xmlns="http://www.w3.org/2000/svg">
    <!-- Generator: Sketch 51.1 (57501) - http://www.bohemiancoding.com/sketch -->
    <title>main_gridview_icon_expired</title>
    <desc>Created with Sketch.</desc>
    <defs></defs>
    <g id="Symbols" stroke="none" stroke-width="1" fill="none" fill-rule="evenodd" opacity="0.5">
        <g id="main/library/grid/component/expired">
            <circle id="Oval-7" fill="#F2F4F5" cx="25" cy="25" r="25"></circle>
            <path d="M13.0734199,36.9264635 C7.11586726,30.9689109 6.57467156,21.6351184 11.4116998,15.0410376 L34.9603124,38.5911169 C32.0871353,40.7060334 28.6360961,41.8661575 25.0002583,41.8661575 C20.4946942,41.8661575 16.2589945,40.1120381 13.0734199,36.9264635 M36.9270968,13.0727865 C42.8831828,19.0318058 43.4243784,28.3641316 38.5873503,34.9582125 L15.0387376,11.4095998 C17.9133814,9.29321661 21.3629539,8.1330925 25.0002583,8.1330925 C29.5058225,8.1330925 33.7415221,9.88721188 36.9270968,13.0727865 M40.5556013,9.44428207 C36.2612354,5.14844958 30.6307469,2.9998 25.0002583,2.9998 C19.3697698,2.9998 13.7392812,5.14844958 9.44344874,9.44428207 C0.851783752,18.0344804 0.851783752,31.9647696 9.44344874,40.5564346 C13.7392812,44.8508004 19.3697698,46.99945 25.0002583,46.99945 C30.6307469,46.99945 36.2612354,44.8508004 40.5556013,40.5564346 C49.1487329,31.9647696 49.1487329,18.0344804 40.5556013,9.44428207" id="Fill-1" fill="#000000"></path>
        </g>
    </g>
</svg>
