<?xml version="1.0" encoding="UTF-8"?>
<svg width="50px" height="50px" viewBox="0 0 50 50" version="1.1" xmlns="http://www.w3.org/2000/svg">
    <!-- Generator: Sketch 52.5 (67469) - http://www.bohemiancoding.com/sketch -->
    <title>main-gridview-icon-not-available-on-PC</title>
    <desc>Created with Sketch.</desc>
    <g id="Symbols" stroke="none" stroke-width="1" fill="none" fill-rule="evenodd" opacity="0.5">
        <g id="main/library/grid/component/PC-x">
            <g id="2">
                <circle id="Oval-7" fill="#F2F4F5" cx="25" cy="25" r="25"></circle>
                <path d="M19.4088476,31.5572541 L12.4661017,38.5 L10.5,36.5338983 L15.4766442,31.5572541 L12.9756096,31.5572541 C11.8238939,31.5572541 10.8902438,30.6236041 10.8902438,29.4718883 L10.8902438,15.5694499 C10.8902438,14.4177342 11.8238939,13.4840842 12.9756096,13.4840842 L33.5498141,13.4840842 L36.5338983,10.5 L38.5,12.4661017 L36.7800117,14.18609 L33.8292672,17.1368345 L22.8844572,28.0816445 L19.4088476,31.5572541 Z M37.3048768,17.5934283 L37.3048768,29.4718883 C37.3048768,30.6236041 36.3712268,31.5572541 35.2195111,31.5572541 L25.8353651,31.5572541 L25.8353651,35.7279856 L31.3914624,35.7279856 C31.7780617,35.7279856 32.0914624,36.0413863 32.0914624,36.4279856 L32.0914624,38.5035952 C32.0914624,38.8901946 31.7780617,39.2035952 31.3914624,39.2035952 L16.8036582,39.2035952 C16.503794,39.2035952 16.247968,39.015045 16.1482705,38.7500346 L19.1703195,35.7279856 L22.3597555,35.7279856 L22.3597555,32.5385496 L26.8166606,28.0816445 L33.8292672,28.0816445 L33.8292672,21.0690379 L37.3048768,17.5934283 Z M30.0742045,16.9596938 L14.3658534,16.9596938 L14.3658534,28.0816445 L18.9522538,28.0816445 L30.0742045,16.9596938 Z" id="Combined-Shape" fill="#000000" fill-rule="nonzero" transform="translate(24.500000, 24.851798) scale(-1, 1) translate(-24.500000, -24.851798) "></path>
            </g>
        </g>
    </g>
</svg>
