<svg height="16" viewBox="0 0 16 16" width="16" xmlns="http://www.w3.org/2000/svg"><g fill="#b8bfc4" transform="translate(0 .5)"><path d="m15.1692308 2.21538462h-3.8461539v-.36923077c0-.73846154-.5846154-1.84615385-1.50769228-1.84615385h-3.66153847c-.92307692 0-1.5076923 1.07692308-1.5076923 1.84615385v.36923077h-3.81538462c-.30769231 0-.58461538.24615384-.58461538.58461538s.24615384.58461538.58461538.58461538h1.07692308l.30769231 9.90769232c0 .8307692.67692307 1.5076923 1.5076923 1.5076923h8.58461538c.8307692 0 1.4769231-.6769231 1.5076923-1.5076923l.3076923-9.90769232h1.0769231c.3076923 0 .5846154-.24615384.5846154-.58461538s-.3076923-.58461538-.6153846-.58461538zm-9.35384618-.36923077c0-.30769231.24615384-.67692308.33846153-.67692308h3.6923077c.09230769.03076923.33846155.36923077.33846155.67692308v.36923077h-4.36923078zm6.83076918 11.38461535c0 .2153846-.1538461.3692308-.3384615.3692308h-8.58461538c-.18461538 0-.33846154-.1538462-.33846154-.3692308 0 0 0 0 0-.0307692l-.3076923-9.87692308h9.90769232z"/><path d="m6.50769231 5.35384615c-.30769231 0-.58461539.24615385-.58461539.58461539v5.10769226c0 .3076924.24615385.5846154.58461539.5846154s.58461538-.2461538.58461538-.5846154v-5.10769226c-.03076923-.33846154-.27692307-.58461539-.58461538-.58461539z"/><path d="m9.18461538 5.93846154v5.10769226c0 .3076924.24615385.5846154.58461539.5846154.33846153 0 .58461543-.2461538.58461543-.5846154v-5.10769226c0-.30769231-.2461539-.58461539-.58461543-.58461539-.33846154 0-.58461539.24615385-.58461539.58461539z"/></g></svg>