<?xml version="1.0" encoding="UTF-8"?>
<svg width="16px" height="16px" viewBox="0 0 16 16" version="1.1" xmlns="http://www.w3.org/2000/svg">
    <!-- Generator: Sketch 51.1 (57501) - http://www.bohemiancoding.com/sketch -->
    <title>list_icon_search_body</title>
    <desc>Created with Sketch.</desc>
    <defs></defs>
    <g id="Symbols" stroke="none" stroke-width="1" fill="none" fill-rule="evenodd">
        <g id="reader/menu/icon/search_body/normal" fill="#B8BFC4">
            <g id="list_icon_search_body">
                <path d="M5.94617317,10.0628596 C3.66842672,10.0628596 1.82990721,8.22402373 1.82990721,5.94614224 C1.82990721,3.66866992 3.66842672,1.82983403 5.94617317,1.82983403 C8.22432973,1.82983403 10.0628492,3.66866992 10.0628492,5.94614224 C10.0628492,8.22402373 8.22432973,10.0628596 5.94617317,10.0628596 Z M11.4350746,10.0628596 L10.7120521,10.0628596 L10.4561439,9.81571746 C11.3526426,8.77313761 11.8923463,7.419175 11.8923463,5.94614224 C11.8923463,2.66209754 9.23032757,3.97904366e-14 5.94617317,3.97904366e-14 C2.66201876,3.97904366e-14 -7.5317492e-14,2.66209754 -7.5317492e-14,5.94614224 C-7.5317492e-14,9.23018694 2.66201876,11.8926937 5.94617317,11.8926937 C7.41928538,11.8926937 8.77305583,11.3525816 9.8159635,10.4560775 L10.0628492,10.7122216 L10.0628492,11.4352351 L14.6363869,16 L16,14.6370355 L11.4350746,10.0628596 Z" id="Fill-1"></path>
            </g>
        </g>
    </g>
</svg>
