<svg height="24" viewBox="0 0 31 24" width="31" xmlns="http://www.w3.org/2000/svg"><g fill-rule="evenodd" transform="translate(0 2)"><path d="m16.25 18.5h13v-17h-13zm-14.5 0h13v-17h-13zm28-18.5h-13.5-1.5-13.5c-.552 0-1 .448-1 1v18c0 .552.448 1 1 1h13.5 1.5 13.5c.55 0 1-.45 1-1v-18c0-.55-.45-1-1-1z"/><path d="m7.9193 8.5276-1.42 1.25-.85-.979 2.31-1.951h1.4v7.08h-1.44zm17.0498 4.1367v1.32h-4.939v-1.59l2.75-2.469c.139-.127.279-.271.419-.431s.21-.347.21-.559c0-.241-.086-.429-.259-.566-.174-.137-.377-.205-.611-.205-.28 0-.498.087-.655.261-.156.173-.245.386-.265.639l-1.5-.11c.02-.366.097-.685.23-.955.134-.27.31-.495.53-.675s.479-.314.776-.405c.295-.09.618-.135.964-.135.321 0 .621.045.901.135.279.091.522.224.729.4.207.177.368.399.486.665.116.267.174.577.174.93 0 .227-.023.432-.07.615-.047.184-.111.35-.194.5-.084.151-.183.288-.296.415s-.236.25-.369.37l-2.151 1.85z"/></g></svg>