<svg height="24" viewBox="0 0 24 24" width="24" xmlns="http://www.w3.org/2000/svg"><path d="m17.1766553 15.762273 4.9900447 4.990927-1.414 1.414-4.9904223-4.9904223c-1.5386051 1.2158149-3.4001252 1.8237223-5.2623777 1.8237223-2.176 0-4.351-.83-6.01-2.49-3.32-3.32-3.32-8.701 0-12.021 1.659-1.66 3.834-2.489 6.01-2.489s4.351.829 6.011 2.489c3.0798496 3.08077754 3.301768 7.9362451.6657553 11.272773zm-6.6767553-12.261773c-1.869 0-3.627.728-4.949 2.05s-2.051 3.08-2.051 4.95c0 1.869.729 3.627 2.051 4.949s3.08 2.051 4.949 2.051c1.87 0 3.628-.729 4.95-2.051 2.729-2.729 2.729-7.17-.001-9.899-1.321-1.322-3.079-2.05-4.949-2.05z" fill-rule="evenodd"/></svg>