<svg height="24" viewBox="0 0 31 24" width="31" xmlns="http://www.w3.org/2000/svg"><g fill-rule="evenodd" transform="translate(0 2)"><path d="m16.25 18.5h13v-17h-13zm-14.5 0h13v-17h-13zm28-18.5h-13.5-1.5-13.5c-.553 0-1 .448-1 1v18c0 .552.447 1 1 1h13.5 1.5 13.5c.55 0 1-.45 1-1v-18c0-.55-.45-1-1-1z"/><path d="m10.7197 12.6643v1.32h-4.939v-1.59l2.75-2.469c.139-.127.279-.271.419-.431s.21-.347.21-.559c0-.241-.086-.429-.259-.566-.174-.137-.377-.205-.611-.205-.28 0-.498.087-.655.261-.156.173-.245.386-.265.639l-1.5-.11c.02-.366.097-.685.23-.955.134-.27.31-.495.53-.675s.479-.314.776-.405c.295-.09.618-.135.964-.135.321 0 .621.045.901.135.279.091.522.224.729.4.207.177.368.399.486.665.116.267.174.577.174.93 0 .227-.023.432-.07.615-.047.184-.111.35-.194.5-.084.151-.183.288-.296.415s-.236.25-.369.37l-2.151 1.85zm12.0196.0606c.326 0 .568-.085.725-.255s.235-.389.235-.655c0-.2-.042-.356-.125-.465-.084-.11-.191-.191-.325-.245s-.283-.085-.45-.095c-.166-.011-.333-.015-.5-.015h-.35v-1.3h.49c.14 0 .277-.01.409-.031.134-.019.256-.057.366-.114.11-.056.198-.137.265-.24.067-.104.1-.238.1-.405 0-.213-.085-.39-.255-.531-.17-.139-.379-.21-.625-.21-.233 0-.427.064-.58.191s-.254.283-.3.47l-1.65-.34c.08-.307.2-.569.36-.785.16-.217.35-.392.569-.525.221-.134.466-.232.736-.296.27-.062.554-.094.855-.094.313 0 .614.039.904.115.291.077.545.196.766.36.22.163.395.368.525.614.129.247.195.54.195.88 0 .394-.104.731-.31 1.011-.207.279-.507.46-.9.54v.029c.213.028.401.091.564.191.164.099.302.223.415.37.114.146.201.313.261.5.06.186.09.383.09.59 0 .353-.068.663-.205.929-.137.267-.32.489-.55.665-.23.177-.5.309-.81.396-.31.086-.638.13-.985.13-.634 0-1.179-.147-1.636-.441-.456-.293-.757-.755-.904-1.389l1.58-.37c.053.254.161.453.324.599.164.148.406.221.726.221z"/></g></svg>