<svg height="24" viewBox="0 0 24 24" width="24" xmlns="http://www.w3.org/2000/svg"><path d="m18.8197083 14.667c-.343 4.07-1.928 5.807-5.301 5.807-1.386 0-2.305-.174-3.027-.553-1.26900001-.799-1.84200001-1.772-2.50600001-2.898l-.09-.152c-.807-1.368-2.211-3.095-3.243-4.199-.092-.098-.376-.434-.189-.647.1-.117.299-.198.568-.198.341 0 .792.13 1.298.486.189.134.374.287.554.435.265.218.539.442.818.609.449.272.814.123.951.047.508-.287.508-.917.508-1.293v-6.361c0-.413.337-.75.75-.75.41300001 0 .75000001.337.75000001.75v5.128c0 .414.336.75.75.75s.75-.336.75-.75v-5.128-.736-.764c0-.413.337-.75.75-.75s.75.337.75.75v.764.736 5.128c0 .414.336.75.75.75s.75-.336.75-.75v-5.128c0-.413.337-.75.75-.75s.75.337.75.75v2.967l-.189 2.66c-.029.413.283.771.696.801.017.001.036.002.053.002.39 0 .719-.302.747-.698l.184-2.593c.094-.344.414-.576.774-.553.413.034.72.398.692.766zm.23-7.825c-.31-.029-.609.014-.889.109v-1.201c0-1.24-1.01-2.25-2.25-2.25-.293 0-.572.056-.829.158-.261-.954-1.135-1.658-2.171-1.658s-1.91.704-2.171 1.658c-.257-.102-.536-.158-.82900001-.158-1.24 0-2.25 1.01-2.25 2.25v5.695c-.154-.124-.31-.247-.468-.358-1.59-1.119-3.146-.87-3.861-.047-.542.623-.683 1.686.225 2.656 1.155 1.237 2.409 2.856 3.048 3.939l.089.15c.699 1.187 1.422 2.412 3.048 3.434 1.00100001.529 2.13100001.755 3.77700001.755 4.166 0 6.389-2.349 6.79-7.138l.798-5.566c.102-1.237-.821-2.326-2.057-2.428z" fill-rule="evenodd"/></svg>