<?xml version="1.0" encoding="UTF-8"?>
<svg width="24px" height="24px" viewBox="0 0 24 24" version="1.1" xmlns="http://www.w3.org/2000/svg" xmlns:xlink="http://www.w3.org/1999/xlink">
    <!-- Generator: Sketch 57.1 (83088) - https://sketch.com -->
    <title>toolbar-icon-reading-note</title>
    <desc>Created with Sketch.</desc>
    <g id="Symbols" stroke="none" stroke-width="1" fill="none" fill-rule="evenodd">
        <g id="reader/toolbar/icon/rn/normal" fill="#000000">
            <g id="reader/toolbar/icon/rn" transform="translate(0.000000, -1.000000)">
                <g id="toolbar-icon-reading-note" transform="translate(3.000000, 2.000000)">
                    <path d="M1,0 L17,0 C17.5128358,0 17.9355072,0.38604019 17.9932723,0.883378875 L18,1 L18,14 L10.19,22 L1,22 C0.487164161,22 0.0644928393,21.6139598 0.00672773133,21.1166211 L0,21 L0,1 C0,0.487164161 0.38604019,0.0644928393 0.883378875,0.00672773133 L1,0 L17,0 L1,0 Z M16.5,1.5 L1.5,1.5 L1.5,20.5 L9.25,20.5 L9.25,13.28 L16.5,13.28 L16.5,1.5 Z M15.17,14.75 L10.75,14.75 L10.75,19.28 L15.17,14.75 Z M10,7.75 L10,9.25 L4,9.25 L4,7.75 L10,7.75 Z M14,4 L14,5.5 L4,5.5 L4,4 L14,4 Z" id="Shape"></path>
                </g>
            </g>
        </g>
    </g>
</svg>
