<?xml version="1.0" encoding="UTF-8"?>
<svg width="24px" height="24px" viewBox="0 0 24 24" version="1.1" xmlns="http://www.w3.org/2000/svg" xmlns:xlink="http://www.w3.org/1999/xlink">
    <!-- Generator: Sketch 53.2 (72643) - https://sketchapp.com -->
    <title>reader-toolbar-btn-back</title>
    <desc>Created with Sketch.</desc>
    <g id="Symbols" stroke="none" stroke-width="1" fill="none" fill-rule="evenodd" opacity="0.900000036">
        <g id="reader/toolbar/icon/back/active" fill="#000000">
            <g id="btn/back">
                <path d="M6.81421356,13 L12.5459415,18.731728 C12.7412037,18.9269901 12.7412037,19.2435726 12.5459415,19.4388348 L11.8388348,20.1459415 C11.6435726,20.3412037 11.3269901,20.3412037 11.131728,20.1459415 L3.35355339,12.367767 C3.25224282,12.2664564 3.20349662,12.1324865 3.20731479,11.9997475 C3.20349662,11.8670084 3.25224282,11.7330386 3.35355339,11.631728 L11.131728,3.85355339 C11.3269901,3.65829124 11.6435726,3.65829124 11.8388348,3.85355339 L12.5459415,4.56066017 C12.7412037,4.75592232 12.7412037,5.07250481 12.5459415,5.26776695 L6.8137085,11 L21,11 C21.2761424,11 21.5,11.2238576 21.5,11.5 L21.5,12.5 C21.5,12.7761424 21.2761424,13 21,13 L6.81421356,13 Z" id="2px"></path>
            </g>
        </g>
    </g>
</svg>