<?xml version="1.0" encoding="UTF-8"?>
<svg width="40px" height="40px" viewBox="0 0 40 40" version="1.1" xmlns="http://www.w3.org/2000/svg" xmlns:xlink="http://www.w3.org/1999/xlink">
    <!-- Generator: Sketch 61.2 (89653) - https://sketch.com -->
    <title>reader/btn/page/sepia/normal copy 2</title>
    <desc>Created with Sketch.</desc>
    <g id="1_Toolbars" stroke="none" stroke-width="1" fill="none" fill-rule="evenodd">
        <g id="viewer-coachmark" transform="translate(-620.000000, -340.000000)">
            <g id="reader/btn/page/sepia/normal-copy-2" transform="translate(640.000000, 360.000000) scale(-1, 1) translate(-640.000000, -360.000000) translate(620.000000, 340.000000)">
                <g id="btn/page/normal" stroke="#FFFFFF">
                    <circle id="Oval-3" cx="20" cy="20" r="19.5"></circle>
                </g>
                <g id="reader/toolbar/icon/back/normal" transform="translate(20.000000, 20.000000) scale(-1, 1) translate(-20.000000, -20.000000) translate(12.000000, 12.000000)" fill="#FFFFFF">
                    <g id="btn/back" transform="translate(0.791667, 0.791667)">
                        <path d="M13.9083333,10.0083333 C14.0740188,10.0083333 14.2083333,10.1426479 14.2083333,10.3083333 L14.2083333,10.9083333 C14.2083333,11.0740188 14.0740188,11.2083333 13.9083333,11.2083333 L0.508333333,11.2083333 C0.342647908,11.2083333 0.208333333,11.0740188 0.208333333,10.9083333 L0.208333333,10.3083333 C0.208333333,10.1426479 0.342647908,10.0083333 0.508333333,10.0083333 L13.9083333,10.0083333 Z M13.9083333,6.60833333 C14.0740188,6.60833333 14.2083333,6.74264791 14.2083333,6.90833333 L14.2083333,7.50833333 C14.2083333,7.67401876 14.0740188,7.80833333 13.9083333,7.80833333 L0.508333333,7.80833333 C0.342647908,7.80833333 0.208333333,7.67401876 0.208333333,7.50833333 L0.208333333,6.90833333 C0.208333333,6.74264791 0.342647908,6.60833333 0.508333333,6.60833333 L13.9083333,6.60833333 Z M13.9083333,3.20833333 C14.0740188,3.20833333 14.2083333,3.34264791 14.2083333,3.50833333 L14.2083333,4.10833333 C14.2083333,4.27401876 14.0740188,4.40833333 13.9083333,4.40833333 L0.508333333,4.40833333 C0.342647908,4.40833333 0.208333333,4.27401876 0.208333333,4.10833333 L0.208333333,3.50833333 C0.208333333,3.34264791 0.342647908,3.20833333 0.508333333,3.20833333 L13.9083333,3.20833333 Z" id="Combined-Shape"></path>
                    </g>
                </g>
            </g>
        </g>
    </g>
</svg>