<svg height="6" viewBox="0 0 21 6" width="21" xmlns="http://www.w3.org/2000/svg"><path d="m11.0738 2.63259c-.987 0-1.926.525-2.387 1.302.563.008 1.414.136 2.82.678 1.406.502 4.001 1.675 4.91 2.002 1.01.351 1.975.64 2.934.64 1.075 0 2.034-.373 2.538-1.333-1.002.137-1.946-.03-3.337-.601-1.068-.434-4.009-1.859-5.004-2.217-.836-.297-1.645-.472-2.458-.472h-.015zm-4.146 1.843c-.88 0-1.782.671-1.782 1.493 0 .312.101.647.383.854.137.114.137.281-.022.464-.187.214-.461.381-.736.381-.332 0-.771-.327-.771-.96 0-.35.217-1.105 1.082-1.791.909-.73 1.687-.974 2.581-1.035 1.889-1.592 3.417-1.882 4.528-1.882 1.212 0 2.292.411 2.84.64.491.198 2.395 1.036 3.743 1.661 1.412.616 2.631.99 3.468.99.671 0 1.637-.252 1.637-1.12 0-.32-.122-.541-.288-.67-.094-.084-.166-.206-.166-.312 0-.321.274-.808.749-.808.534 0 .822.564.822.989 0 1.159-1.196 1.944-2.004 2.294-1.485 1.667-2.985 2.339-4.441 2.339-1.069 0-2.092-.306-3.447-.823-1.024-.397-4.239-1.783-5.53-2.217-1.19-.389-1.867-.487-2.632-.487z" fill="#525a61" fill-rule="evenodd" transform="translate(-4 -2)"/></svg>