<?xml version="1.0" encoding="UTF-8"?>
<svg width="16px" height="16px" viewBox="0 0 16 16" version="1.1" xmlns="http://www.w3.org/2000/svg" xmlns:xlink="http://www.w3.org/1999/xlink">
    <!-- Generator: Sketch 57.1 (83088) - https://sketch.com -->
    <title>icon-ridibooks</title>
    <desc>Created with Sketch.</desc>
    <g id="Symbols" stroke="none" stroke-width="1" fill="none" fill-rule="evenodd">
        <g id="menu/icon/ridibooks/normal" fill="#9EA7AD">
            <g id="logo_ridibooks_1">
                <path d="M14,0 C15.1045695,-2.02906125e-16 16,0.8954305 16,2 L16,14 C16,15.1045695 15.1045695,16 14,16 L2,16 C0.8954305,16 1.3527075e-16,15.1045695 0,14 L0,2 C-1.3527075e-16,0.8954305 0.8954305,2.02906125e-16 2,0 L14,0 Z M3.69337979,5.5 L2.15679443,5.5 C2.04181185,5.5 2,5.54199851 2,5.6574944 L2,10.224832 C2,10.3403279 2.04181185,10.3823264 2.15679443,10.3823264 L3.09756098,10.3823264 C3.21254355,10.3823264 3.2543554,10.3403279 3.2543554,10.224832 L3.2543554,8.89137942 L3.59930314,8.89137942 L3.6097561,8.9228783 L4.2369338,10.224832 C4.28919861,10.3298283 4.3728223,10.3718268 4.49825784,10.3718268 L5.44947735,10.3718268 C5.53310105,10.3718268 5.54355401,10.3403279 5.54355401,10.3298283 C5.55400697,10.2983294 5.55400697,10.2458313 5.52264808,10.1933331 L4.75958188,8.74438464 L4.728223,8.69188651 L4.7804878,8.67088726 L4.81184669,8.66038763 C5.31358885,8.42939584 5.56445993,7.94641302 5.56445993,7.2324384 C5.56445993,6.59196117 5.41811847,6.14047723 5.12543554,5.88848619 C4.84320557,5.63649515 4.35191638,5.5 3.69337979,5.5 Z M7.40418118,5.5 L6.46341463,5.5 C6.34843206,5.5 6.30662021,5.54199851 6.30662021,5.6574944 L6.30662021,10.224832 C6.30662021,10.3403279 6.34843206,10.3823264 6.46341463,10.3823264 L7.40418118,10.3823264 C7.51916376,10.3823264 7.56097561,10.3403279 7.56097561,10.224832 L7.56097561,5.6574944 C7.56097561,5.54199851 7.51916376,5.5 7.40418118,5.5 Z M9.92334495,5.5 L8.53310105,5.5 C8.41811847,5.5 8.37630662,5.54199851 8.37630662,5.6574944 L8.37630662,10.224832 C8.37630662,10.3403279 8.41811847,10.3823264 8.53310105,10.3823264 L9.93379791,10.3823264 C10.6550523,10.3823264 11.1777003,10.2038328 11.5017422,9.83634582 C11.825784,9.46885889 11.9930314,8.83888128 11.9930314,7.94641302 C11.9930314,7.05394475 11.825784,6.41346752 11.5017422,6.05648021 C11.1777003,5.68899328 10.6445993,5.5 9.92334495,5.5 Z M13.8432056,5.5 L12.902439,5.5 C12.7874564,5.5 12.7456446,5.54199851 12.7456446,5.6574944 L12.7456446,10.224832 C12.7456446,10.3403279 12.7874564,10.3823264 12.902439,10.3823264 L13.8432056,10.3823264 C13.9477352,10.3823264 14,10.3403279 14,10.224832 L14,5.6574944 C14,5.54199851 13.9477352,5.5 13.8432056,5.5 Z M9.87108014,6.59196117 C10.174216,6.59196117 10.3937282,6.68645781 10.5191638,6.88595072 C10.6550523,7.074944 10.71777,7.42143168 10.71777,7.94641302 C10.71777,8.47139435 10.6550523,8.8073824 10.5400697,8.99637568 C10.4146341,9.19586859 10.195122,9.29036523 9.89198606,9.29036523 L9.63066202,9.29036523 L9.63066202,6.59196117 L9.87108014,6.59196117 Z M3.68292683,6.57096192 C3.91289199,6.57096192 4.06968641,6.62346005 4.16376307,6.72845632 C4.24738676,6.82295296 4.29965157,6.99094699 4.29965157,7.2324384 C4.29965157,7.46343019 4.25783972,7.63142422 4.16376307,7.73642048 C4.06968641,7.84141675 3.91289199,7.89391488 3.68292683,7.89391488 L3.2543554,7.89391488 L3.2543554,6.57096192 L3.68292683,6.57096192 Z" id="Combined-Shape"></path>
            </g>
        </g>
    </g>
</svg>
