<?xml version="1.0" encoding="UTF-8"?>
<svg width="24px" height="24px" viewBox="0 0 24 24" version="1.1" xmlns="http://www.w3.org/2000/svg">
    <!-- Generator: Sketch 51.1 (57501) - http://www.bohemiancoding.com/sketch -->
    <title>main-icon-more</title>
    <desc>Created with Sketch.</desc>
    <defs></defs>
    <g id="Symbols" stroke="none" stroke-width="1" fill="none" fill-rule="evenodd">
        <g id="main/library/icon/3_dots/normal" fill="#475161">
            <g id="Group" transform="translate(3.500000, 10.500000)">
                <path d="M1.5,3 C0.671572875,3 0,2.32842712 0,1.5 C0,0.671572875 0.671572875,0 1.5,0 C2.32842712,0 3,0.671572875 3,1.5 C3,2.32842712 2.32842712,3 1.5,3 Z M15.5,3 C14.6715729,3 14,2.32842712 14,1.5 C14,0.671572875 14.6715729,0 15.5,0 C16.3284271,0 17,0.671572875 17,1.5 C17,2.32842712 16.3284271,3 15.5,3 Z M8.5,3 C7.67157288,3 7,2.32842712 7,1.5 C7,0.671572875 7.67157288,0 8.5,0 C9.32842712,0 10,0.671572875 10,1.5 C10,2.32842712 9.32842712,3 8.5,3 Z" id="Combined-Shape"></path>
            </g>
        </g>
    </g>
</svg>
