<?xml version="1.0" encoding="UTF-8"?>
<svg width="24px" height="24px" viewBox="0 0 24 24" version="1.1" xmlns="http://www.w3.org/2000/svg">
    <!-- Generator: Sketch 51.1 (57501) - http://www.bohemiancoding.com/sketch -->
    <title>main-icon-download-all</title>
    <desc>Created with Sketch.</desc>
    <defs></defs>
    <g id="Symbols" stroke="none" stroke-width="1" fill="none" fill-rule="evenodd">
        <g id="main/library/icon/series/normal" fill="#475161">
            <path d="M11.275,9.43933983 L11.275,0.5 L12.775,0.5 L12.775,9.3875652 L16.6625652,5.5 L17.7232254,6.56066017 L13.0597729,11.2241127 L13.0632254,11.2275652 L12.0025652,12.2882254 L11.9991127,12.2847729 L11.9956602,12.2882254 L10.935,11.2275652 L10.9384525,11.2241127 L6.275,6.56066017 L7.33566017,5.5 L11.275,9.43933983 Z M2,22 L22,22 L22,23.5 L2,23.5 L2,22 Z M2,18.5 L22,18.5 L22,20 L2,20 L2,18.5 Z M2,15 L22,15 L22,16.5 L2,16.5 L2,15 Z" id="Combined-Shape"></path>
        </g>
    </g>
</svg>
