<?xml version="1.0" encoding="UTF-8"?>
<svg width="24px" height="24px" viewBox="0 0 24 24" version="1.1" xmlns="http://www.w3.org/2000/svg">
    <!-- Generator: Sketch 51.1 (57501) - http://www.bohemiancoding.com/sketch -->
    <title>main-icon-search</title>
    <desc>Created with Sketch.</desc>
    <defs></defs>
    <g id="Symbols" stroke="none" stroke-width="1" fill="none" fill-rule="evenodd">
        <g id="main/library/icon/search/normal" fill="#475161">
            <path d="M16.1151919,14.6690535 L20.5,19.0536296 L19.0545527,20.5 L14.6697545,16.1144426 C13.5047581,16.9810762 12.0609349,17.4939085 10.4973246,17.4939085 C6.63280216,17.4939085 3.5,14.3612722 3.5,10.4969543 C3.5,6.63263638 6.63280216,3.5 10.4973246,3.5 C14.3618469,3.5 17.4946491,6.63263638 17.4946491,10.4969543 C17.4946491,12.0604327 16.9818219,13.5041379 16.1151919,14.6690535 Z M10.4973246,4.99934734 C7.46548379,4.99934734 4.99942669,7.4662735 4.99942669,10.4969543 C4.99942669,13.5286346 7.46548379,15.9945612 10.4973246,15.9945612 C13.5291653,15.9945612 15.9952224,13.5286346 15.9952224,10.4969543 C15.9952224,7.4662735 13.5291653,4.99934734 10.4973246,4.99934734 Z" id="Fill-2"></path>
        </g>
    </g>
</svg>
