<svg xmlns="http://www.w3.org/2000/svg" width="16" height="16" viewBox="0 0 16 16">
    <g fill="none" fill-rule="evenodd">
        <path fill="#9EA7AD" stroke="#9EA7AD" stroke-width=".5" d="M10.188 8.3h4.687V3.795h-4.688V8.3zm0 6.607h3.75V8.899h-3.75v6.008zm-3.75 0h3.125V3.795H6.437v11.112zM1.125 8.3h4.688V3.795H1.125V8.3zm.938 6.607h3.75V8.899h-3.75v6.008zM6.61 1.444l.088.08.011.009c.022.024.04.044.053.062.303.38.526.994.683 1.605H4.507a1.332 1.332 0 0 1 .139-1.734c.468-.436 1.406-.538 1.964-.022zm2.748.072l.01-.01.087-.078c.547-.507 1.465-.406 1.924.022.482.479.513 1.231.1 1.75H8.627c.153-.615.376-1.24.68-1.623a.877.877 0 0 1 .052-.061zm4.58 13.984c.38 0 .624-.282.624-.637V8.942c0-.015.249-.043.249-.043.38 0 .689-.289.689-.644V3.838c0-.355-.31-.644-.69-.638h-2.622a1.888 1.888 0 0 0-.377-2.167C11.104.366 9.8.29 9.033 1.003l-.082.074s-.096.098-.136.15c-.368.464-.773 1.784-.773 1.784s-.41-1.31-.779-1.771a1.77 1.77 0 0 0-.136-.155l-.085-.073c-.786-.725-2.116-.648-2.837.03A1.92 1.92 0 0 0 3.792 3.2H1.189C.81 3.194.5 3.483.5 3.838v4.417c0 .355.31.644.69.644h.252l-.004 5.964c0 .355.244.643.625.637h11.874z"/>
    </g>
</svg>
