<svg xmlns="http://www.w3.org/2000/svg" xmlns:xlink="http://www.w3.org/1999/xlink" width="16px" height="16px" viewBox="0 0 16 16" version="1.1">
    <!-- Generator: Sketch 57.1 (83088) - https://sketch.com -->
    <title>Shape</title>
    <desc>Created with Sketch.</desc>
    <g id="Symbols" stroke="none" stroke-width="1" fill="none" fill-rule="evenodd">
        <g id="menu/icon/ridiselect/normal" fill="#9EA7AD" fill-rule="nonzero">
            <path d="M10.9917012,6.79875519 L7.73858921,10.1099585 L7.39004149,10.4585062 L7.04149378,10.1099585 L4.8340249,7.90248963 L5.12448133,7.55394191 L5.53112033,7.1473029 L5.87966805,6.79875519 L7.39004149,8.30912863 L9.8879668,5.75311203 L10.2946058,5.40456432 L10.6431535,5.75311203 L11.0497925,6.15975104 L11.340249,6.50829876 L10.9917012,6.79875519 Z M11.4564315,2.5 C9.94605809,2.5 8.55186722,3.13900415 7.97095436,3.95228216 C7.39004149,3.13900415 5.99585062,2.5 4.48547718,2.5 L1.87136929,2.5 C1.406639,2.5 1,2.84854772 1,3.31327801 L1,12.2593361 C1,12.5497925 1.23236515,12.7240664 1.52282158,12.7240664 C1.52282158,12.7240664 2.97510373,12.7240664 3.61410788,12.7240664 C5.00829876,12.7240664 7.21576763,12.8983402 7.56431535,14.1182573 L8.43568465,14.1182573 C8.78423237,12.8983402 10.9917012,12.7240664 12.3858921,12.7240664 C13.0829876,12.7240664 14.4771784,12.7240664 14.4771784,12.7240664 C14.7676349,12.7240664 15,12.4917012 15,12.2593361 L15,3.31327801 C14.9419087,2.84854772 14.5352697,2.5 14.0705394,2.5 L11.4564315,2.5 Z" id="Shape"/>
        </g>
    </g>
</svg>
