<?xml version="1.0" encoding="UTF-8"?>
<svg width="24px" height="24px" viewBox="0 0 24 24" version="1.1" xmlns="http://www.w3.org/2000/svg">
    <!-- Generator: Sketch 51.1 (57501) - http://www.bohemiancoding.com/sketch -->
    <title>main-icon-filter-on</title>
    <desc>Created with Sketch.</desc>
    <defs></defs>
    <g id="Symbols" stroke="none" stroke-width="1" fill="none" fill-rule="evenodd">
        <g id="main/library/icon/category/ON" fill="#1F8CE6">
            <g id="Group" transform="translate(0.000000, 4.000000)">
                <path d="M5,0 L19,0 C21.7614237,-5.07265313e-16 24,2.23857625 24,5 L24,11 C24,13.7614237 21.7614237,16 19,16 L5,16 C2.23857625,16 1.2263553e-15,13.7614237 8.8817842e-16,11 L0,5 C-3.38176876e-16,2.23857625 2.23857625,5.07265313e-16 5,0 Z M11.1220703,8.79345703 L11.1220703,7.38623047 C11.1220703,6.42659025 10.8141307,5.63346667 10.1982422,5.00683594 C9.58235369,4.3802052 8.78385907,4.06689453 7.80273438,4.06689453 C6.81444818,4.06689453 6.01326804,4.3802052 5.39916992,5.00683594 C4.7850718,5.63346667 4.47802734,6.42659025 4.47802734,7.38623047 L4.47802734,8.79345703 C4.47802734,9.75667799 4.78596697,10.5506967 5.40185547,11.1755371 C6.01774396,11.8003775 6.82160962,12.112793 7.81347656,12.112793 C8.79818201,12.112793 9.59578145,11.8003775 10.2062988,11.1755371 C10.8168162,10.5506967 11.1220703,9.75667799 11.1220703,8.79345703 Z M9.31201172,7.37548828 L9.31201172,8.79345703 C9.31201172,9.35921507 9.18131641,9.82112451 8.91992188,10.1791992 C8.65852734,10.5372739 8.28971592,10.7163086 7.81347656,10.7163086 C7.32291421,10.7163086 6.94604624,10.5372739 6.68286133,10.1791992 C6.41967642,9.82112451 6.28808594,9.35921507 6.28808594,8.79345703 L6.28808594,7.37548828 C6.28808594,6.81331099 6.41788607,6.35408707 6.67749023,5.99780273 C6.9370944,5.6415184 7.31217203,5.46337891 7.80273438,5.46337891 C8.28255448,5.46337891 8.65405142,5.64241357 8.91723633,6.00048828 C9.18042124,6.35856299 9.31201172,6.81689174 9.31201172,7.37548828 Z M18.7490234,12 L18.7490234,4.1796875 L16.9389648,4.1796875 L16.9389648,9.08349609 L16.9067383,9.09423828 L14.0439453,4.1796875 L12.2285156,4.1796875 L12.2285156,12 L14.0439453,12 L14.0439453,7.09082031 L14.0761719,7.08007812 L16.9389648,12 L18.7490234,12 Z" id="Combined-Shape"></path>
            </g>
        </g>
    </g>
</svg>
