<svg xmlns="http://www.w3.org/2000/svg" width="18" height="40" viewBox="0 0 18 40">
    <g fill="#FFF" fill-rule="evenodd">
        <path d="M12.116 21h-6c-.55 0-1-.45-1-1s.45-1 1-1h6c.55 0 1 .45 1 1s-.45 1-1 1M12.116 17h-6c-.55 0-1-.45-1-1s.45-1 1-1h6c.55 0 1 .45 1 1s-.45 1-1 1M12.116 25h-6c-.55 0-1-.45-1-1s.45-1 1-1h6c.55 0 1 .45 1 1s-.45 1-1 1M13.116 33h-8v-4c0-.55.45-1 1-1h6c.55 0 1 .45 1 1v4zM6.116 12c-.55 0-1-.45-1-1V7h8v4c0 .55-.45 1-1 1h-6z"/>
        <path d="M9.8 1.272a.999.999 0 0 0-1.369 0L2.763 6.599c-.586.643-.13 1.674.738 1.674h11.23c.867 0 1.323-1.031.737-1.674L9.8 1.272zM9.812 38.969l5.412-5.251c.645-.626.201-1.718-.697-1.718H3.705c-.899 0-1.342 1.092-.698 1.718l5.412 5.251a1 1 0 0 0 1.393 0"/>
    </g>
</svg>
