<svg xmlns="http://www.w3.org/2000/svg" width="58" height="21" viewBox="0 0 58 21">
    <g fill="none" fill-rule="evenodd" stroke="#FFF" stroke-linecap="square">
        <path stroke-width="1.5" d="M8.232 12.267l3.251 3.251 1.306 1.306-2.611 2.61-1.306-1.305-6.408-6.408-1.306-1.306 2.611-2.61 5.1-5.1L10.173 1.4l2.61 2.61-1.305 1.306-3.258 3.259h14.775v3.692H8.232z"/>
        <path fill="#FFF" d="M49.768 12.267l-3.251 3.251-1.306 1.306 2.611 2.61 1.306-1.305 6.408-6.408 1.306-1.306-2.611-2.61-5.1-5.1L47.827 1.4l-2.61 2.61 1.305 1.306 3.258 3.259H35.004v3.692H49.768z"/>
    </g>
</svg>
