<svg width="48px" height="48px" viewBox="0 0 48 48" version="1.1" xmlns="http://www.w3.org/2000/svg">
    <g id="main-empty-icon-search" stroke="none" stroke-width="1" fill="none" fill-rule="evenodd">
        <g id="icon/book_h:48" transform="translate(-3.000000, -3.000000)" fill="#D1D5D9" fill-rule="nonzero">
            <path d="M35.5583862,32.7352482 C35.588983,32.7623359 35.6189487,32.7905216 35.6482323,32.8198052 L45.5477272,42.7193001 C46.3287758,43.5003487 46.3287758,44.7666786 45.5477272,45.5477272 C44.7666786,46.3287758 43.5003487,46.3287758 42.7193001,45.5477272 L32.8198052,35.6482323 C32.7905216,35.6189487 32.7623359,35.588983 32.7352482,35.5583862 C26.4582832,40.4458364 17.3769636,40.0043806 11.6066017,34.2340187 C5.35821305,27.98563 5.35821305,17.8549904 11.6066017,11.6066017 C17.8549904,5.35821305 27.98563,5.35821305 34.2340187,11.6066017 C40.0043806,17.3769636 40.4458364,26.4582832 35.5583862,32.7352482 Z M14.4350288,31.4055916 C19.1213203,36.0918831 26.7193001,36.0918831 31.4055916,31.4055916 C36.0918831,26.7193001 36.0918831,19.1213203 31.4055916,14.4350288 C26.7193001,9.74873734 19.1213203,9.74873734 14.4350288,14.4350288 C9.74873734,19.1213203 9.74873734,26.7193001 14.4350288,31.4055916 Z" id="Shape"></path>
        </g>
    </g>
</svg>
